<svg xmlns="http://www.w3.org/2000/svg" viewBox="0 0 400 400" fill="none" shape-rendering="auto"><metadata xmlns:rdf="http://www.w3.org/1999/02/22-rdf-syntax-ns#" xmlns:xsi="http://www.w3.org/2001/XMLSchema-instance" xmlns:dc="http://purl.org/dc/elements/1.1/" xmlns:dcterms="http://purl.org/dc/terms/"><rdf:RDF><rdf:Description><dc:title>Adventurer Neutral</dc:title><dc:creator>Lisa Wischofsky</dc:creator><dc:source xsi:type="dcterms:URI">https://www.figma.com/community/file/1184595184137881796</dc:source><dcterms:license xsi:type="dcterms:URI">https://creativecommons.org/licenses/by/4.0/</dcterms:license><dc:rights>Remix of „Adventurer Neutral” (https://www.figma.com/community/file/1184595184137881796) by „Lisa Wischofsky”, licensed under „CC BY 4.0” (https://creativecommons.org/licenses/by/4.0/)</dc:rights></rdf:Description></rdf:RDF></metadata><mask id="viewboxMask"><rect width="400" height="400" rx="0" ry="0" x="0" y="0" fill="#fff" /></mask><g mask="url(#viewboxMask)"><rect fill="#9e5622" width="400" height="400" x="0" y="0" /><g transform="translate(-279 -322)"><path d="M550.27 424.38a65.85 65.85 0 0 1 34.46 5.92 65.02 65.02 0 0 1 27.52 24.52 64.86 64.86 0 0 1 8.78 46.18c-2.62 15.25-11.05 29.23-23.03 38.97-16.48 13.6-39.38 18.04-59.8 11.9a65.42 65.42 0 0 1-38.32-30.76c-7.42-12.96-9.7-28.23-7.33-42.9a64.9 64.9 0 0 1 18.4-35.26 65.17 65.17 0 0 1 39.32-18.57Z" fill="#000"/><path d="M549.23 430.27c9.32-.98 18.71-.35 27.55 2.92a59.66 59.66 0 0 1 33.08 28.93c5.89 11.3 7.76 24.3 5.8 36.86a60.18 60.18 0 0 1-17.48 33.21c-9.48 9.35-22.52 15.1-35.7 16.47a59.94 59.94 0 0 1-43.07-13.03c-9.46-7.5-15.92-17.77-19.8-29.11-5.25-18.02-1.63-38.17 9.75-53.13a59.47 59.47 0 0 1 39.88-23.12Z" fill="#fff"/><path d="M521.23 467.28c7.3-1.89 15.52.27 20.87 5.62a22 22 0 0 1 5.6 22.95c-3.5 11.19-16.53 17.96-27.64 14.08-11.45-3.35-18.17-16.1-14.6-27.48a22.37 22.37 0 0 1 15.77-15.17ZM332.97 478.46c14.43.75 28.78 1.53 43.05 3.91 21.13 3.42 42.86 8.97 62.12 18.47 2.85 1.6 2.45 3.3 1.6 6.06-2.42.05-4.41-.24-6.71-1-11.15-3.39-22.56-5.26-34.03-7.17-10.45-1.44-20.56-3.19-31-3.72-10.97-1.1-21.89-.72-32.98-.66-1.97-.1-5.02.62-6.6-.75-.76-2.14.78-4.69 1.32-6.78-.94-1.57-3.08-3.45-2.4-5.43.87-2.4 3.35-2.93 5.63-2.93Z" fill="#000"/></g><g transform="translate(-279 -322)"><path d="M568.44 405.96c-.6-2.92-2.48-4.87-4.6-6.82-11.98-10.95-29.88-15.87-45.64-11.58-9.72 2.4-18.51 8.36-23.63 17.06-2.83 5.03-4.78 10.54-3.98 16.4.08.42.13.83.18 1.23.2 1.63.37 3 2.44 3.54 2.17.12 4.4-.29 6.54-.68l.31-.06 6.22-1.2c5.24-1 10.48-2 15.68-3.19a640.08 640.08 0 0 0 44.88-11.08c1.77-.25 1.7-1.62 1.63-3.02l-.03-.6ZM430.1 431.05c-.81-9.8-8.9-17.41-17.88-20.31a39.68 39.68 0 0 0-38.34 9.13c-4.45 4.18-8.39 9.97-9.12 16.14-.08 2.74 2.36 2.78 4.44 2.82.26 0 .52 0 .77.02 3.02-.08 6.05-.14 9.07-.2 9.34-.17 18.7-.35 27.98-1.3 2.4-.21 4.83-.38 7.24-.54 4.26-.3 8.52-.58 12.74-1.14 2.42.03 3.28-2.6 3.1-4.62Z" fill="#000"/></g><g transform="translate(-279 -322)"><path d="M525.03 563.67c.41.78.8 1.57 1.14 2.37.47 2.66-1.95 3.31-3.8 4.34-4 1.77-8.06 3.4-12.13 4.98-17.66 6.32-35.39 11.11-54.24 11.94-6.5.5-12.94.62-19.44.04-4.9-.57-10.15-.63-14.87-2.03-2.35-.88-2.73-3.93-.4-5.07 2.68-.12 5.48.83 8.18 1.02 7.2.89 14.3.61 21.54.61 22.5-.76 45.02-6.79 65.7-15.48 2.76-1.19 5.22-2.6 8.32-2.72Z" fill="#000"/></g><g transform="translate(-279 -322)"><path fill-rule="evenodd" clip-rule="evenodd" d="M608 415.8c6.19-.15 12.37-.17 18.55-.18 4.48-.01 8.97-.03 13.45-.1.56.02 1.13.02 1.7.02 3.1 0 6.25.02 9.3.5 2.58.53 5.61 1.94 6.1 4.83a38.9 38.9 0 0 1-1.15 17c-.46 1.76-1.74 2.09-3.35 2.33-3.46.36-6.95.57-10.42.78l-3.76.23c.12 4.28.38 8.64.64 13.02.7 11.72 1.4 23.63-.44 34.8a87.76 87.76 0 0 1-5.73 21.83c-3.11 8.55-9.1 16.19-15.42 22.62-9.83 10.36-22.25 18.39-36.2 21.8a115.5 115.5 0 0 1-33.23 2.17c-9.22-1.58-18.8-3.87-27.06-8.4-10.5-6.05-18.47-15.05-24.78-25.29-8.17-12.62-11.9-27.18-15.47-41.59-.52-2.19-.84-4.45-1.17-6.71-.42-2.83-.83-5.67-1.61-8.37-.48-1.78-2.64-3.07-4.17-3.9-6.7-3.36-16.4-.94-18.99 6.6-.5 2.84-.55 5.75-.6 8.66-.06 2.86-.11 5.73-.59 8.55-2 13.03-4.77 26.14-10.56 38.06-5.55 11.58-11.7 22.03-22.47 29.5-12.88 7.76-28.34 13.44-43.57 11.92-6.86-.15-14.05-1.4-20.36-4.13-6.87-3.71-13.8-8.11-18.84-14.16-10.32-12.28-16.95-27.7-20.8-43.17-1.86-6.83-3.03-13.81-2.96-20.9-1.64.23-3.27.55-4.9.87-2.4.46-4.79.93-7.2 1.16a5.27 5.27 0 0 1-5.36-2.69c-1.96-3.76-2.46-8.38-1.77-12.53l.12-.54c.23-1.1.47-2.3 1.61-2.79 27.43-12.56 55.94-20.6 85.48-26.45 11.24-2.31 22.47-3.81 33.98-3.07a61.95 61.95 0 0 1 28.86 7.05c10.79 4.81 24.5 5.41 35.15-.12 3.04-1.48 4.93-3.68 6.93-5.99a39.5 39.5 0 0 1 3.95-4.14c9.81-9.08 23.1-13.26 36.12-14.8 13.1-2.37 26.26-3 39.52-3.65l2.5-.12c5.54-.15 11.1-.15 16.65-.15 7.44 0 14.89 0 22.32-.36Zm-23 6.26c8.34-.34 16.32-.45 24.15 2.9.65.3 1.37.6 2.11.9 3.17 1.31 6.86 2.83 7.89 5.97 5.81 12.4 8.22 26.56 8.39 40.17.56 12.44-.87 25.5-5.2 37.22-3.72 9.79-10.5 17.11-18.26 23.88-5.21 4.32-11.62 7.5-17.78 10.22-9.15 3.83-19.3 6.8-29.3 6.15-5.8-.34-11.57-1.78-17.2-3.18l-.87-.23c-5.96-1.47-10.69-4.56-15.7-7.85l-.86-.56c-6.8-4.54-12.23-10.46-17.08-16.98-2.77-3.93-4.56-8.67-6.3-13.25l-1.22-3.16c-4.64-11.94-5.98-24.55-5.87-37.28.1-7.74 1.2-16.94 5.51-23.55 5.14-6.46 12.01-12.24 19.83-15.08 9.27-2.8 19.13-4.25 28.78-4.96 11.57-1.28 23.17-1.3 34.65-1.33H585Zm-172.35 22.06c-.9-.02-1.78-.04-2.66-.08-8.61-.87-17.85.94-26.5 2.63l-3.48.68c-2.29.52-4.57 1-6.84 1.5-9.4 2.01-18.63 4-27.68 7.65-.9.36-1.84.71-2.78 1.07-5.77 2.17-12.01 4.53-14.95 10.19-4.84 9.87-3.73 19.61-2.56 29.93l.37 3.3c1.93 11.76 6.83 23.24 13.14 33.32 5.06 8.01 10.9 15.08 19.42 19.57 12.78 7.1 27.95 6.15 41.4 1.57 11.36-4.43 21.76-9.82 28.56-20.38 8.84-14.04 13.92-30.65 15.47-47.12.91-9.38-.1-18.83-2.68-27.88-.46-1.39-.98-2.92-1.89-4.09-5.19-5.6-11.6-9.87-19.19-11.35-2.33-.4-4.76-.46-7.15-.51Z" fill="#000"/></g></g></svg>
