<svg xmlns="http://www.w3.org/2000/svg" viewBox="0 0 400 400" fill="none" shape-rendering="auto"><metadata xmlns:rdf="http://www.w3.org/1999/02/22-rdf-syntax-ns#" xmlns:xsi="http://www.w3.org/2001/XMLSchema-instance" xmlns:dc="http://purl.org/dc/elements/1.1/" xmlns:dcterms="http://purl.org/dc/terms/"><rdf:RDF><rdf:Description><dc:title>Adventurer Neutral</dc:title><dc:creator>Lisa Wischofsky</dc:creator><dc:source xsi:type="dcterms:URI">https://www.figma.com/community/file/1184595184137881796</dc:source><dcterms:license xsi:type="dcterms:URI">https://creativecommons.org/licenses/by/4.0/</dcterms:license><dc:rights>Remix of „Adventurer Neutral” (https://www.figma.com/community/file/1184595184137881796) by „Lisa Wischofsky”, licensed under „CC BY 4.0” (https://creativecommons.org/licenses/by/4.0/)</dc:rights></rdf:Description></rdf:RDF></metadata><mask id="viewboxMask"><rect width="400" height="400" rx="0" ry="0" x="0" y="0" fill="#fff" /></mask><g mask="url(#viewboxMask)"><rect fill="#f2d3b1" width="400" height="400" x="0" y="0" /><g transform="translate(-279 -322)"><path d="M587.37 431.61a65.1 65.1 0 0 1 27.94 28.7c5.58-3.44 11.26-6.7 16.83-10.18 1.56-.93 3.14-1.94 4.89-2.46 1.93.56 2.77 1.31 2.72 3.44-.47 1.3-1.75 2-2.83 2.76-6.46 3.95-13.07 7.67-19.41 11.81 6.07 14.16 5.97 31.18.8 45.61a65.5 65.5 0 0 1-29.9 35.15 65.13 65.13 0 0 1-43.58 7 65.15 65.15 0 0 1-43.5-29.87 63.26 63.26 0 0 1-9.64-33.57 64.44 64.44 0 0 1 16.82-44.5c9.47-10.43 22.53-17.96 36.46-20.3a65.09 65.09 0 0 1 42.4 6.41Z" fill="#000"/><path d="M549.2 430.27c14.66-1.79 29.3 1.6 41.46 10.02a59.1 59.1 0 0 1 23.46 32.72 59.16 59.16 0 0 1-3.06 40.93c-6.2 13.86-18.05 25.26-32.25 30.69a57.97 57.97 0 0 1-31.8 3.4 59.6 59.6 0 0 1-40.36-26.66 61.47 61.47 0 0 1-9.37-29.35 60.43 60.43 0 0 1 13.41-40.34 59.53 59.53 0 0 1 38.51-21.41Z" fill="#fff"/><path d="M414.7 454.33a54.92 54.92 0 0 1 24.53 30.46c2.68 8.02 3.17 16.86 2.07 25.2a54.85 54.85 0 0 1-61.29 46.3c-15.79-1.8-30.36-10.98-39.03-24.27-5.54-8.33-8.47-18.05-9.1-28-.32-7.07 1.17-13.62 2.92-20.39a238.5 238.5 0 0 1-12.8-8.6c-1.7-1.23-1.84-2.14-1.54-4.17 1.3-1.26 2.74-1.6 4.35-.65 4.2 2.57 8.15 5.53 12.25 8.24 6.7-14.02 19.04-24.86 33.97-29.29a55.12 55.12 0 0 1 43.66 5.17Z" fill="#000"/><path d="M378.2 453.3c18.68-3.52 38.38 4.7 49.14 20.33 7.5 10.77 10.85 24.96 7.88 37.84a48.94 48.94 0 0 1-14.57 26.2A49.55 49.55 0 0 1 391 550.94c-20.13 1.85-40.14-9.82-48.62-28.14a49.3 49.3 0 0 1 35.82-69.5Z" fill="#fff"/><path d="M526.47 467.49c12-2.85 24.87 4.22 29.35 15.63a26.1 26.1 0 0 1-.08 18.72 25.64 25.64 0 0 1-41.14 9.56 25.7 25.7 0 0 1-6.76-27.6 25.54 25.54 0 0 1 18.63-16.31ZM398.22 478.36a23.17 23.17 0 0 1 24.44 11c3.46 5.59 3.67 12.26 2.25 18.53a23.78 23.78 0 0 1-15.87 15.27c-7.51 2.4-16.26.06-21.98-5.24-7.35-6.8-9.5-18-5.05-27a23 23 0 0 1 16.21-12.56Z" fill="#000"/></g><g transform="translate(-279 -322)"><path d="M452.03 395.85c.66 4.64-1.5 9.35-4.2 13-3.6 4.46-7.82 8.36-12.86 11.13-7.66 4.35-15.96 7.7-24.2 10.81-23.78 8.79-48.55 15.1-73.5 19.48-3.36.54-6.98 1.5-10.37 1.11-1.92-.92-2-2.82-1.1-4.52 2.33-1.8 5.48-2.72 8.18-3.89 35.94-14.72 71.88-29.45 107.8-44.2 3.36-1.25 6.6-3.38 10.25-2.92ZM478.97 396c49.32 7.61 98.68 15.15 148.01 22.75 2.58.42 5.33.58 7.8 1.41 2.45 1.14 1.71 5.04-.95 5.26-9.6.95-19.18 1.82-28.83 1.95-15.39.1-30.64.32-45.98-1.18-20.9-1.64-42.24-4.59-62.25-11.06-6.97-2.4-14.88-5.46-20.27-10.64-1.8-1.9-4.09-4.28-3.17-7.13 1.22-2.13 3.6-1.6 5.64-1.36Z" fill="#000"/></g><g transform="translate(-279 -322)"><path d="M505.02 633.16c9.06.53 16.84 6.73 24.11 11.4-13.1-.12-26.35 2.18-38.98 5.54-9.44 2.61-18.6 6-27.08 10.96 3.26-8.09 7.87-18.07 16.6-21.4 4-1.93 7.7-1.13 11.94-.82 3.92-3.32 8-6.13 13.4-5.68Z" fill="#D31E1E"/><path d="M529.13 644.56c2.47.2 4.68 1.43 3.9 4.25-1.38 2.08-4.46 1.3-6.64 1.51-14.9.63-29.68 3.43-43.79 8.28-4.83 1.7-9.55 3.58-13.94 6.24-2 .93-3.37 2.59-5.67 1.42-2.15-1.55-1.16-3.48.08-5.2 8.48-4.96 17.64-8.35 27.08-10.96 12.63-3.36 25.89-5.66 38.98-5.54Z" fill="#000"/><path d="M526.39 650.32a39.78 39.78 0 0 1-24.48 18.5c-11 3.05-23.16 1.14-33.24-3.98 4.39-2.66 9.1-4.54 13.94-6.24a154.94 154.94 0 0 1 43.79-8.28Z" fill="#D31E1E"/></g><g transform="translate(-279 -322)"></g></g></svg>
