<svg xmlns="http://www.w3.org/2000/svg" viewBox="0 0 400 400" fill="none" shape-rendering="auto"><metadata xmlns:rdf="http://www.w3.org/1999/02/22-rdf-syntax-ns#" xmlns:xsi="http://www.w3.org/2001/XMLSchema-instance" xmlns:dc="http://purl.org/dc/elements/1.1/" xmlns:dcterms="http://purl.org/dc/terms/"><rdf:RDF><rdf:Description><dc:title>Adventurer Neutral</dc:title><dc:creator>Lisa Wischofsky</dc:creator><dc:source xsi:type="dcterms:URI">https://www.figma.com/community/file/1184595184137881796</dc:source><dcterms:license xsi:type="dcterms:URI">https://creativecommons.org/licenses/by/4.0/</dcterms:license><dc:rights>Remix of „Adventurer Neutral” (https://www.figma.com/community/file/1184595184137881796) by „Lisa Wischofsky”, licensed under „CC BY 4.0” (https://creativecommons.org/licenses/by/4.0/)</dc:rights></rdf:Description></rdf:RDF></metadata><mask id="viewboxMask"><rect width="400" height="400" rx="0" ry="0" x="0" y="0" fill="#fff" /></mask><g mask="url(#viewboxMask)"><rect fill="#763900" width="400" height="400" x="0" y="0" /><g transform="translate(-279 -322)"><path d="M619.37 468.64c3.87 2.6 8.11 5.27 11.16 8.82.3 1.66.07 3.43.04 5.12-1.93.6-3.41 1.04-5.4.26-29.1-10.45-62.1-9.7-91.32-.07-12.55 4.26-25.01 10.37-35.3 18.8-1.32 1.05-3.89 2.91-5.3 1.13-1.7-1.56-.63-3.53.2-5.23 7.13-12.76 18-23.13 30.66-30.34 29.02-16.58 66.88-16.42 95.26 1.5ZM405.49 480.39c11.64 2.56 23.55 8.63 31.2 17.94 2.8 3.9 6.47 8.06 5.88 13.18-1.58-.03-3.27.7-4.53-.5a50.83 50.83 0 0 0-13.92-8.1c-15.2-5.92-32.5-7.15-48.6-5.03-12.43 1.78-26.06 5.7-36 13.69-1.9 1.3-3.17 2.8-5.67 1.81a5.46 5.46 0 0 1 .33-6.17c16-21.77 45.05-31.82 71.31-26.81Z" fill="#000"/></g><g transform="translate(-279 -322)"><path d="M523.24 384.36c6.17-.42 13.1-.61 18.45 2.95 3.68 2.44 5.4 6.35 4.48 10.74-1.55 6.16-6.62 10.92-11.61 14.5a67.57 67.57 0 0 1-30.57 11.53c-5.61.53-12.5.43-17.47-2.55-3.63-2.13-5.9-6.12-5.2-10.36 1.02-5.75 5.5-10.5 9.94-13.96 9.19-7.03 20.55-11.34 31.98-12.85ZM392.22 401.23c9.1-.36 18.3.5 26.3 5.24 3.86 2.26 7.35 5.89 7.9 10.49.34 4.21-1.96 7.8-5.19 10.27-4.52 3.55-9.87 5-15.43 6-9.95 1-20.55.31-29.48-4.6-3.87-2.28-7.88-5.84-8.47-10.56-.73-4.27 2.02-8.47 5.39-10.84 5.4-3.87 12.43-5.69 18.98-6Z" fill="#000"/></g><g transform="translate(-279 -322)"><path d="M517 555.43c13.39-.24 28.7 3.46 38.6 12.98 5.97 5.58 9.72 13.37 9.9 21.58.32 10.21-3.84 19.58-9.89 27.58-9.04 11.85-21.87 20.72-35.47 26.57-7.32 2.84-14.4 5.71-22.15 7.24a86.28 86.28 0 0 1-50.03-5.3c-13.98-6.02-27.24-14.25-38.31-24.72-5.42-5.3-10.58-11.7-13.28-18.84-2.03-5.48-2.34-11.97 1.22-16.9 3.69-5.38 9.98-7.75 16.17-8.85 12.6-1.77 24.45.42 36.57 3.76 7.36-6.86 15.88-12.06 25.02-16.2 13-5.75 27.38-9.3 41.64-8.9Z" fill="#000"/><path d="M542.47 566.35c-3.47 2.67-7.33 4.74-10.83 7.34-4.3 4.07-7.6 10.96-12.77 14.1-5.16.83-10.5-3.33-15.18-1.12a174.6 174.6 0 0 1-28.5 7.9c-14.13 2.57-29.47 3.77-43.63.89-4.3-1.11-7.12 1.32-11.46 1.88-4.37-4.22-7.53-9.21-12.73-12.6 12.76-5.3 28.76-1.98 41.63 1.52 3.92 1.25 6.04-2.46 8.8-4.48 13.48-10.73 30.18-17.54 47.23-19.85 12.66-1.87 25.64-.74 37.44 4.4Z" fill="#fff"/><path d="M547.96 569.91c7.13 4.3 11.65 12.83 11.82 21.1-.18 7.43-2.97 13.98-6.8 20.23-6.37-2.56-13.17-3.29-20-2.88-14.35.89-28.53 4.42-41.9 9.67-9.04 3.64-18.05 8.23-25.74 14.27a32.46 32.46 0 0 0-8.76 10.38c-7.74-2.15-14.6-5.75-21.53-9.73-9.94-5.85-19.02-12.62-26.5-21.47-3.77-4.64-7.55-10.34-7.78-16.5-.14-2.32.91-4.42 1.72-6.54 5.4 3.65 9.36 8.64 14.22 12.85 4 3.4 9.21-.66 13.75.07 5.81.96 11.66 1.4 17.53 1.74a174.18 174.18 0 0 0 59.65-11.55c4.16.86 9.89 2.73 13.97 1.05 4.92-2.83 8.62-8.57 12.18-12.9 1.47-1.75 3.81-2.92 5.71-4.17 2.9-1.75 5.48-4.02 8.46-5.62Z" fill="#8F2E45"/><path d="M536 614.18c4.54-.1 8.95.63 13.3 1.9-9.23 11.12-22.42 19.3-35.85 24.38-16.26 6.04-34.23 8.32-51.21 3.94a34.42 34.42 0 0 1 6.76-7.39c8.9-7.26 20.2-12.2 31-15.97 11.5-3.83 23.85-6.67 36-6.86Z" fill="#EA869E"/></g><g transform="translate(-279 -322)"></g></g></svg>
